<svg width="100%" viewBox="0 0 674 360" xmlns="http://www.w3.org/2000/svg">
  <defs>
    <marker id="arrowhead" markerWidth="8" markerHeight="8" refX="6" refY="4" orient="auto">
      <path d="M0,0 L8,4 L0,8 L2,4 z" fill="#1e1e1e"/>
    </marker>
  </defs>
  <text x="12" y="88" font-family="Excalifont, cursive" font-size="14" fill="rgba(30,30,30,0.5)" text-anchor="start"><tspan x="12" dy="14">draw your post cards below — anything you like. wrap each one in a frame</tspan><tspan x="12" dy="21">named "link:post/&lt;slug&gt;" (the slug of the post it should open) to make it clickable.</tspan><tspan x="12" dy="21">the example card below shows the pattern; replace it with your own.</tspan></text>
  <rect x="12" y="188" width="220" height="160" rx="12.8" fill="#fdfcf7" stroke="#1e1e1e" stroke-width="1.6"/>
  <rect x="48" y="178" width="56" height="20" rx="1.6" fill="rgba(232,89,44,.55)" stroke="transparent" stroke-width="1.6" transform="rotate(-4.00 76 188)"/>
  <text x="32" y="238" font-family="Excalifont, cursive" font-size="17" fill="#1e1e1e" text-anchor="start"><tspan x="32" dy="17">example post title</tspan></text>
  <text x="32" y="308" font-family="Excalifont, cursive" font-size="12" fill="#e8590c" text-anchor="start"><tspan x="32" dy="12">category · date</tspan></text>
  <text x="136" y="12" font-family="Excalifont, cursive" font-size="20" fill="#1e1e1e" text-anchor="end"><tspan x="136" dy="20">paperplanes</tspan></text>
  <text x="136" y="12" font-family="Excalifont, cursive" font-size="20" fill="#e8590c" text-anchor="start"><tspan x="136" dy="20">.cloud</tspan></text>
  <path d="M 20.483800977912836 39.28650686468592 L 21.142358335806136 39.28650686468592 L 22.023746523848672 39.28650686468592 L 24.415274860163834 39.28650686468592 L 25.84877255730231 39.28650686468592 L 27.283689559091385 39.28650686468592 L 29.913661076712742 39.28650686468592 L 31.108715592545025 39.28650686468592 L 32.5422132896835 39.28650686468592 L 33.73868711016638 39.28650686468592 L 35.17218480730486 39.28650686468592 L 37.56229383896937 39.28650686468592 L 38.9972108407585 39.28650686468592 L 39.95382217528453 39.28650686468592 L 41.14887669111681 39.28650686468592 L 43.300542541475124 39.28650686468592 L 44.25573457135056 39.28650686468592 L 45.212345905876646 39.28650686468592 L 46.168957240402676 39.04806368337972 L 48.0807606048042 39.04806368337972 L 49.03737193933023 38.8082011974229 L 49.993983273856315 38.8082011974229 L 51.90578663825784 38.56975801611671 L 52.86239797278387 38.32989553015986 L 53.819009307309955 38.32989553015986 L 54.77420133718539 38.091452348853664 L 56.68742400623751 37.851589862896844 L 57.64403534076354 37.61314668159065 L 58.59922737063897 37.61314668159065 L 60.2725875537343 37.3732841956338 L 61.22919888826033 37.3732841956338 L 61.94594773682957 37.134841014327606 L 62.902559071355654 37.134841014327606 L 64.33747607314473 37.134841014327606 L 65.29266810302016 36.89639783302141 L 66.96602828611549 36.89639783302141 L 68.8792509551676 36.89639783302141 L 69.83444298504304 36.89639783302141 L 71.03091680552592 36.65653534706456 L 71.98610883540135 36.65653534706456 L 74.13777468575967 36.41809216575837 L 75.33282920159195 36.17822967980155 L 76.28944053611804 36.17822967980155 L 78.44110638647635 35.6999240125385 L 79.39771772100238 35.6999240125385 L 80.59277223683466 35.46148083123231 L 81.54938357136075 35.46148083123231 L 83.46118693576221 35.22303764992611 L 84.6562414515945 35.22303764992611 L 85.61285278612058 34.983175163969264 L 86.56946412064661 34.983175163969264 L 88.95957315231112 34.983175163969264 L 90.39449015410025 34.74473198266307 L 91.58954466993254 34.74473198266307 L 94.21809688290324 34.74473198266307 L 95.41457070338612 34.74473198266307 L 96.6096252192184 34.983175163969264 L 97.56481724909384 34.983175163969264 L 99.47803991814595 35.22303764992611 L 100.19478876671519 35.22303764992611 L 101.15140010124128 35.46148083123231 L 102.5848977983797 35.6999240125385 L 103.30306595159959 35.6999240125385 L 104.25825798147503 35.6999240125385 L 105.21486931600106 35.93978649849535 L 106.88822949909638 35.93978649849535 L 108.08328401492861 35.93978649849535 L 109.0398953494547 36.17822967980155 L 110.23494986528698 36.17822967980155 L 112.1481725343391 36.17822967980155 L 113.34322705017138 36.17822967980155 L 114.29983838469741 36.41809216575837 L 115.01658723326665 36.41809216575837 L 116.92839059766817 36.65653534706456 L 117.646558750888 36.89639783302141 L 118.36330759945724 36.89639783302141 L 119.79680529659572 37.134841014327606 L 120.51497344981556 37.3732841956338 L 121.47016547969099 37.3732841956338 L 122.18833363291088 37.61314668159065 L 123.86169381600615 37.851589862896844 L 124.81688584588159 37.851589862896844 L 125.53505399910148 37.851589862896844 L 126.49024602897691 38.091452348853664 L 128.16360621207218 38.091452348853664 L 128.88177436529207 38.091452348853664 L 129.59852321386126 38.32989553015986 L 130.79357772969354 38.32989553015986 L 131.27188339695658 38.32989553015986 L 131.98863224552582 38.32989553015986 L 132.46693791278886 38.32989553015986 L 134.14029809588413 38.32989553015986 L 135.09690943041022 38.32989553015986 L 135.81365827897946 38.32989553015986 L 137.0087127948117 38.32989553015986 L 138.9219354638638 38.32989553015986 L 140.1169899796961 38.32989553015986 L 141.07360131422217 38.32989553015986 L 143.46371034588668 38.32989553015986 L 144.65876486171896 38.091452348853664 L 145.8538193775512 38.091452348853664 L 147.28873637934032 38.091452348853664 L 149.91870789696168 37.851589862896844 L 151.1137624127939 37.61314668159065 L 152.54726010993238 37.61314668159065 L 153.74231462576466 37.61314668159065 L 156.37228614338602 37.3732841956338 L 157.8072031451751 37.3732841956338 L 159.00225766100738 37.3732841956338 L 161.39236669267189 37.3732841956338 L 162.58742120850417 37.61314668159065 L 163.78389502898705 37.61314668159065 L 165.21739272612552 37.61314668159065 L 167.36905857648384 37.851589862896844 L 168.56411309231612 37.851589862896844 L 169.7591676081484 37.851589862896844 L 170.95564142863128 37.851589862896844 L 173.105887974339 38.091452348853664 L 174.30236179482188 38.091452348853664 L 175.2575538246973 38.32989553015986 L 176.93091400779258 38.56975801611671 L 177.64908216101247 38.8082011974229 L 178.3658310095817 38.8082011974229 L 179.08257985815095 39.04806368337972 L 180.27763437398318 39.04806368337972 L 180.99580252720307 39.28650686468592 L 181.9509945570785 39.28650686468592 L 182.66916271029834 39.28650686468592 L 184.58096607469986 39.52495004599214 L 185.5375774092259 39.52495004599214 L 186.73263192505817 39.52495004599214 L 187.68924325958426 39.76481253194896 L 189.83948980529192 39.52495004599214 L 191.03596362577485 39.52495004599214 L 191.99115565565023 39.52495004599214 L 194.1428215060086 39.28650686468592 L 195.09943284053463 39.04806368337972 L 196.05604417506072 38.8082011974229 L 197.01123620493615 38.56975801611671 L 198.44615320672523 37.851589862896844 L 199.16290205529447 37.61314668159065 L 199.8796509038637 37.3732841956338 L 200.35795657112675 36.89639783302141 L 201.55443039160963 36.41809216575837 L 202.03131675422202 36.17822967980155 L 202.03131675422202 36.17822967980155" fill="none" stroke="#e9590d" stroke-width="2" stroke-linecap="round" stroke-linejoin="round"/>
</svg>
